<?xml version="1.0" encoding="UTF-8"?>
<svg xmlns="http://www.w3.org/2000/svg" viewBox="0 0 512 512">
  <defs>
    <linearGradient id="grad" x1="0%" y1="0%" x2="100%" y2="100%">
      <stop offset="0%" stop-color="#2563EB"/>
      <stop offset="100%" stop-color="#9333EA"/>
    </linearGradient>
  </defs>

  <!-- Maximale Nutzung der Fläche für Favicon -->

  <!-- Linker User -->
  <circle cx="105" cy="135" r="48" fill="url(#grad)"/>
  <path d="M20 305c0-55 42-95 95-95 26 0 50 10 68 28L130 330H20z" fill="url(#grad)"/>

  <!-- Rechter User -->
  <circle cx="405" cy="135" r="48" fill="url(#grad)"/>
  <path d="M329 238c18-18 42-28 68-28 53 0 95 40 95 95H382z" fill="url(#grad)"/>

  <!-- Hauptuser -->
  <circle cx="256" cy="115" r="82" fill="url(#grad)"/>
  <path d="M80 355c0-95 78-155 176-155s176 60 176 155v60H80z" fill="url(#grad)"/>

  <!-- Großes Zahnrad -->
  <g transform="translate(380,350) scale(1.75)">
    <path fill="url(#grad)"
      d="M0-48h14l4 14c5 1 9 3 13 5l13-8 10 10-8 13c2 4 4 8 5 13l14 4v14l-14 4c-1 5-3 9-5 13l8 13-10 10-13-8c-4 2-8 4-13 5l-4 14h-14l-4-14c-5-1-9-3-13-5l-13 8-10-10 8-13c-2-4-4-8-5-13l-14-4v-14l14-4c1-5 3-9 5-13l-8-13 10-10 13 8c4-2 8-4 13-5z"/>
    <circle cx="0" cy="0" r="24" fill="white"/>
  </g>
</svg>
